<svg xmlns="http://www.w3.org/2000/svg" viewBox="0 0 54.72 51.59"><defs><style>.cls-1{fill:#f6e0b6;}</style></defs><title>home_yellow</title><g id="Layer_2" data-name="Layer 2"><g id="Layer_1-2" data-name="Layer 1"><path class="cls-1" d="M28.32.25,54.29,21a1.12,1.12,0,0,1-.7,2H52.23a1.13,1.13,0,0,0-1.13,1.13V50.46A1.12,1.12,0,0,1,50,51.59H34.78a1.12,1.12,0,0,1-1.12-1.13V38.79a1.13,1.13,0,0,0-1.13-1.12h-10a1.12,1.12,0,0,0-1.12,1.12V50.46a1.13,1.13,0,0,1-1.13,1.13h-15a1.12,1.12,0,0,1-1.13-1.13V24.09A1.13,1.13,0,0,0,3,23H1.13a1.13,1.13,0,0,1-.7-2L26.92.24A1.13,1.13,0,0,1,28.32.25Z"/></g></g></svg>