<svg xmlns="http://www.w3.org/2000/svg" viewBox="0 0 53.11 50.13"><defs><style>.cls-1{fill:none;stroke:#2e2e2e;stroke-miterlimit:10;}</style></defs><title>home</title><g id="Layer_2" data-name="Layer 2"><g id="Layer_1-2" data-name="Layer 1"><path class="cls-1" d="M27.47.73,52.21,20.46a1.07,1.07,0,0,1-.67,1.91h-1.3a1.07,1.07,0,0,0-1.07,1.07V48.56a1.07,1.07,0,0,1-1.08,1.07H33.63a1.07,1.07,0,0,1-1.08-1.07V37.44a1.07,1.07,0,0,0-1.07-1.07H21.94a1.07,1.07,0,0,0-1.07,1.07V48.56a1.07,1.07,0,0,1-1.07,1.07H5.49a1.07,1.07,0,0,1-1.07-1.07V23.44a1.08,1.08,0,0,0-1.08-1.07H1.57a1.07,1.07,0,0,1-.66-1.92L26.14.73A1.07,1.07,0,0,1,27.47.73Z"/><line class="cls-1" x1="2.82" y1="22.37" x2="50.91" y2="22.37"/></g></g></svg>