<?xml version="1.0" encoding="utf-8"?>
<!-- Generator: Adobe Illustrator 22.1.0, SVG Export Plug-In . SVG Version: 6.00 Build 0)  -->
<svg version="1.1" id="Laag_1" xmlns="http://www.w3.org/2000/svg" xmlns:xlink="http://www.w3.org/1999/xlink" x="0px" y="0px"
	 viewBox="0 0 37 45.2" style="enable-background:new 0 0 37 45.2;" xml:space="preserve">
<style type="text/css">
	.st0{fill:none;stroke:#CA353B;stroke-linecap:round;stroke-linejoin:round;}
	.st1{fill:none;stroke:#CA353B;stroke-linejoin:round;}
</style>
<title>trash</title>
<g id="Layer_2">
	<g id="Layer_1-2">
		<path class="st0" d="M2.4,10.8l2,29.9c0.1,2.2,2,3.9,4.1,3.9h19.8c2.2,0,4-1.7,4.1-3.9l2-29.9h-32"/>
		<path class="st0" d="M2.7,6h31.6c1.2,0,2.2,1,2.2,2.2v0.4c0,1.2-1,2.2-2.2,2.2H2.7c-1.2,0-2.2-1-2.2-2.2V8.2C0.5,7,1.5,6,2.7,6z"
			/>
		<line class="st1" x1="8.9" y1="15.6" x2="11.2" y2="39.8"/>
		<line class="st1" x1="28" y1="15.6" x2="25.7" y2="39.8"/>
		<line class="st1" x1="18.4" y1="15.6" x2="18.4" y2="39.8"/>
		<path class="st0" d="M15.8,0.5h5.3c1.8,0,3.3,1.5,3.3,3.3c0,0,0,0,0,0V6l0,0H12.5l0,0V3.8C12.5,2,14,0.5,15.8,0.5
			C15.8,0.5,15.8,0.5,15.8,0.5z"/>
	</g>
</g>
</svg>
