<?xml version="1.0" encoding="utf-8"?>
<!-- Generator: Adobe Illustrator 22.1.0, SVG Export Plug-In . SVG Version: 6.00 Build 0)  -->
<svg version="1.1" id="Laag_1" xmlns="http://www.w3.org/2000/svg" xmlns:xlink="http://www.w3.org/1999/xlink" x="0px" y="0px"
	 viewBox="0 0 377 471" style="enable-background:new 0 0 377 471;" xml:space="preserve">
<style type="text/css">
	.st0{fill:#F7F7F7;}
	.st1{clip-path:url(#SVGID_2_);}
	.st2{fill:#CA353B;}
	.st3{font-family:'Lato-Bold';}
	.st4{font-size:20px;}
	.st5{fill:#96C9B3;}
	.st6{fill:none;stroke:#E5E3E3;}
	.st7{fill:#302D2A;}
	.st8{font-size:15px;}
	.st9{font-size:10px;}
	.st10{font-family:'Helvetica-Normal';}
	.st11{font-size:16px;}
	.st12{font-family:'Lato-Regular';}
	.st13{fill:#EBB24C;}
	.st14{fill:#1A3C5A;}
	.st15{fill:none;stroke:#302D2A;}
	.st16{fill:none;}
	.st17{fill:#F6E0B6;}
	.st18{fill:none;stroke:#EBB24C;stroke-width:2;}
	.st19{fill:none;stroke:#1A3C5A;stroke-width:2;}
</style>
<title>dashboard</title>
<g id="Layer_2">
	<g id="Layer_1-2">
		<polyline class="st0" points="375.5,0 375.5,471 0.5,471 0.5,0 		"/>
		<g>
			<defs>
				<polyline id="SVGID_1_" points="375.5,0 375.5,471 0.5,471 0.5,0 				"/>
			</defs>
			<clipPath id="SVGID_2_">
				<use xlink:href="#SVGID_1_"  style="overflow:visible;"/>
			</clipPath>
			<g class="st1">
				<text transform="matrix(1 0 0 1 30.5 62)" class="st2 st3 st4">1</text>
				<text transform="matrix(1 0 0 1 42.1 62)" class="st2 st3 st4">.9</text>
				<text transform="matrix(1 0 0 1 58.2 62)" class="st2 st3 st4">8</text>
				<text transform="matrix(1 0 0 1 69.8 62)" class="st2 st3 st4">K</text>
				<text transform="matrix(1 0 0 1 83.46 62)" class="st2 st3 st4">G</text>
				<text transform="matrix(1 0 0 1 30.5 166)" class="st2 st3 st4">€</text>
				<text transform="matrix(1 0 0 1 45.96 166)" class="st2 st3 st4">23</text>
				<text transform="matrix(1 0 0 1 69.16 166)" class="st2 st3 st4">,96</text>
				<text transform="matrix(1 0 0 1 218.5 62)" class="st5 st3 st4">1</text>
				<text transform="matrix(1 0 0 1 230.1 62)" class="st5 st3 st4">.5</text>
				<text transform="matrix(1 0 0 1 246.2 62)" class="st5 st3 st4">8</text>
				<text transform="matrix(1 0 0 1 257.8 62)" class="st5 st3 st4">K</text>
				<text transform="matrix(1 0 0 1 271.46 62)" class="st5 st3 st4">G</text>
				<text transform="matrix(1 0 0 1 218.5 166)" class="st5 st3 st4">€</text>
				<text transform="matrix(1 0 0 1 233.96 166)" class="st5 st3 st4">15</text>
				<text transform="matrix(1 0 0 1 257.16 166)" class="st5 st3 st4">,32</text>
				<line class="st6" x1="0" y1="30.5" x2="377" y2="30.5"/>
				<line class="st6" x1="0" y1="228.5" x2="377" y2="228.5"/>
				<line class="st6" x1="0" y1="129.5" x2="377" y2="129.5"/>
				<line class="st6" x1="188" y1="228.5" x2="188" y2="30.5"/>
				<text transform="matrix(1 0 0 1 34.5 269)" class="st7 st3 st8">V</text>
				<text transform="matrix(1 0 0 1 44.23 269)" class="st7 st3 st8">e</text>
				<text transform="matrix(1 0 0 1 52.25 269)" class="st7 st3 st8">r</text>
				<text transform="matrix(1 0 0 1 58.37 269)" class="st7 st3 st8">s</text>
				<text transform="matrix(1 0 0 1 64.93 269)" class="st7 st3 st8">pi</text>
				<text transform="matrix(1 0 0 1 77.48 269)" class="st7 st3 st8">l</text>
				<text transform="matrix(1 0 0 1 81.54 269)" class="st7 st3 st8">l</text>
				<text transform="matrix(1 0 0 1 85.6 269)" class="st7 st3 st8">i</text>
				<text transform="matrix(1 0 0 1 89.67 269)" class="st7 st3 st8">ngs</text>
				<text transform="matrix(1 0 0 1 115.41 269)" class="st7 st3 st8">a</text>
				<text transform="matrix(1 0 0 1 123.26 269)" class="st7 st3 st8">c</text>
				<text transform="matrix(1 0 0 1 130.42 269)" class="st7 st3 st8">t</text>
				<text transform="matrix(1 0 0 1 136.22 269)" class="st7 st3 st8">i</text>
				<text transform="matrix(1 0 0 1 140.29 269)" class="st7 st3 st8">v</text>
				<text transform="matrix(1 0 0 1 148.29 269)" class="st7 st3 st8">i</text>
				<text transform="matrix(1 0 0 1 152.35 269)" class="st7 st3 st8">t</text>
				<text transform="matrix(1 0 0 1 158.16 269)" class="st7 st3 st8">e</text>
				<text transform="matrix(1 0 0 1 166.18 269)" class="st7 st3 st8">i</text>
				<text transform="matrix(1 0 0 1 170.24 269)" class="st7 st3 st8">t</text>
				<text transform="matrix(1 0 0 1 207.5 269)" class="st7 st3 st9">jij</text>
				<text transform="matrix(1 0 0 1 246.5 269)" class="st7 st3 st9">g</text>
				<text transform="matrix(1 0 0 1 251.67 269)" class="st7 st3 st9">e</text>
				<text transform="matrix(1 0 0 1 257.02 269)" class="st7 st3 st9">mi</text>
				<text transform="matrix(1 0 0 1 268.15 269)" class="st7 st3 st9">d</text>
				<text transform="matrix(1 0 0 1 273.85 269)" class="st7 st3 st9">d</text>
				<text transform="matrix(1 0 0 1 279.55 269)" class="st7 st3 st9">e</text>
				<text transform="matrix(1 0 0 1 284.9 269)" class="st7 st3 st9">l</text>
				<text transform="matrix(1 0 0 1 287.6 269)" class="st7 st3 st9">d</text>
				<text transform="matrix(1 0 0 1 33.5 77)" class="st7 st10 st11">ver</text>
				<text transform="matrix(1 0 0 1 55.42 77)" class="st7 st10 st11">spi</text>
				<text transform="matrix(1 0 0 1 76.46 77)" class="st7 st10 st11">l</text>
				<text transform="matrix(1 0 0 1 80.01 77)" class="st7 st10 st11">t</text>
				<text transform="matrix(1 0 0 1 30.5 183)" class="st7 st10 st11">we</text>
				<text transform="matrix(1 0 0 1 51.22 183)" class="st7 st10 st11">gg</text>
				<text transform="matrix(1 0 0 1 69.59 183)" class="st7 st10 st11">e</text>
				<text transform="matrix(1 0 0 1 78.18 183)" class="st7 st10 st11">g</text>
				<text transform="matrix(1 0 0 1 87.36 183)" class="st7 st10 st11">o</text>
				<text transform="matrix(1 0 0 1 96.55 183)" class="st7 st10 st11">o</text>
				<text transform="matrix(1 0 0 1 105.73 183)" class="st7 st10 st11">i</text>
				<text transform="matrix(1 0 0 1 109.28 183)" class="st7 st10 st11">d</text>
				<text transform="matrix(1 0 0 1 218.5 183)" class="st7 st10 st11">we</text>
				<text transform="matrix(1 0 0 1 239.22 183)" class="st7 st10 st11">gg</text>
				<text transform="matrix(1 0 0 1 257.59 183)" class="st7 st10 st11">e</text>
				<text transform="matrix(1 0 0 1 266.18 183)" class="st7 st10 st11">g</text>
				<text transform="matrix(1 0 0 1 275.36 183)" class="st7 st10 st11">o</text>
				<text transform="matrix(1 0 0 1 284.55 183)" class="st7 st10 st11">o</text>
				<text transform="matrix(1 0 0 1 293.73 183)" class="st7 st10 st11">i</text>
				<text transform="matrix(1 0 0 1 297.28 183)" class="st7 st10 st11">d</text>
				<text transform="matrix(1 0 0 1 221.5 77)" class="st7 st10 st11">ver</text>
				<text transform="matrix(1 0 0 1 243.42 77)" class="st7 st10 st11">spi</text>
				<text transform="matrix(1 0 0 1 264.46 77)" class="st7 st10 st11">l</text>
				<text transform="matrix(1 0 0 1 268.01 77)" class="st7 st10 st11">t</text>
				<text transform="matrix(1 0 0 1 27.5 21)" class="st7 st12 st8">W</text>
				<text transform="matrix(1 0 0 1 42.54 21)" class="st7 st12 st8">e</text>
				<text transform="matrix(1 0 0 1 50.4 21)" class="st7 st12 st8">e</text>
				<text transform="matrix(1 0 0 1 58.27 21)" class="st7 st12 st8">k</text>
				<text transform="matrix(1 0 0 1 69.02 21)" class="st7 st12 st8">1</text>
				<text transform="matrix(1 0 0 1 77.72 21)" class="st7 st12 st8">8</text>
				<text transform="matrix(1 0 0 1 218.5 21)" class="st7 st12 st8">W</text>
				<text transform="matrix(1 0 0 1 233.54 21)" class="st7 st12 st8">e</text>
				<text transform="matrix(1 0 0 1 241.4 21)" class="st7 st12 st8">e</text>
				<text transform="matrix(1 0 0 1 249.27 21)" class="st7 st12 st8">k</text>
				<text transform="matrix(1 0 0 1 260.02 21)" class="st7 st12 st8">1</text>
				<text transform="matrix(1 0 0 1 268.72 21)" class="st7 st12 st8">7</text>
				<path class="st13" d="M203.5,266c0,0.8-0.2,1.6-0.5,2.3c-0.6,1.5-1.8,2.6-3.2,3.2c-1.5,0.6-3.1,0.6-4.6,0
					c-1.5-0.6-2.6-1.8-3.2-3.2c-0.6-1.5-0.6-3.1,0-4.6c0.6-1.5,1.8-2.6,3.2-3.2c1.5-0.6,3.1-0.6,4.6,0c1.4,0.6,2.6,1.8,3.2,3.2
					C203.3,264.4,203.5,265.2,203.5,266z"/>
				<path class="st14" d="M242.5,266c0,0.8-0.2,1.6-0.5,2.3c-0.6,1.5-1.8,2.6-3.2,3.2c-1.5,0.6-3.1,0.6-4.6,0
					c-1.5-0.6-2.6-1.8-3.2-3.2c-0.6-1.5-0.6-3.1,0-4.6c0.6-1.5,1.8-2.6,3.2-3.2c1.5-0.6,3.1-0.6,4.6,0c1.4,0.6,2.6,1.8,3.2,3.2
					C242.3,264.4,242.5,265.2,242.5,266z"/>
				<line class="st15" x1="60.3" y1="293.5" x2="60.3" y2="443.5"/>
				<line class="st16" x1="60.3" y1="443.5" x2="344.5" y2="443.5"/>
				<line class="st15" x1="60.3" y1="443.5" x2="344.5" y2="443.5"/>
				<text transform="matrix(1 0 0 1 30.5 301)" class="st7 st3 st9">5</text>
				<text transform="matrix(1 0 0 1 36.3 301)" class="st7 st3 st9">k</text>
				<text transform="matrix(1 0 0 1 41.81 301)" class="st7 st3 st9">g</text>
				<text transform="matrix(1 0 0 1 30.5 329)" class="st7 st3 st9">4</text>
				<text transform="matrix(1 0 0 1 36.3 329)" class="st7 st3 st9">k</text>
				<text transform="matrix(1 0 0 1 41.81 329)" class="st7 st3 st9">g</text>
				<text transform="matrix(1 0 0 1 30.5 357)" class="st7 st3 st9">3</text>
				<text transform="matrix(1 0 0 1 36.3 357)" class="st7 st3 st9">k</text>
				<text transform="matrix(1 0 0 1 41.81 357)" class="st7 st3 st9">g</text>
				<text transform="matrix(1 0 0 1 30.5 385)" class="st7 st3 st9">2</text>
				<text transform="matrix(1 0 0 1 36.3 385)" class="st7 st3 st9">k</text>
				<text transform="matrix(1 0 0 1 41.81 385)" class="st7 st3 st9">g</text>
				<text transform="matrix(1 0 0 1 30.5 413)" class="st7 st3 st9">1</text>
				<text transform="matrix(1 0 0 1 36.3 413)" class="st7 st3 st9">k</text>
				<text transform="matrix(1 0 0 1 41.81 413)" class="st7 st3 st9">g</text>
				<text transform="matrix(1 0 0 1 30.5 442)" class="st7 st3 st9">0</text>
				<text transform="matrix(1 0 0 1 36.3 442)" class="st7 st3 st9">k</text>
				<text transform="matrix(1 0 0 1 41.81 442)" class="st7 st3 st9">g</text>
				<text transform="matrix(1 0 0 1 30.5 462)" class="st7 st3 st9">we</text>
				<text transform="matrix(1 0 0 1 43.75 462)" class="st7 st3 st9">e</text>
				<text transform="matrix(1 0 0 1 49.1 462)" class="st7 st3 st9">k</text>
				<text transform="matrix(1 0 0 1 101.5 462)" class="st7 st3 st9">1</text>
				<text transform="matrix(1 0 0 1 107.3 462)" class="st7 st3 st9">5</text>
				<text transform="matrix(1 0 0 1 180.5 462)" class="st7 st3 st9">1</text>
				<text transform="matrix(1 0 0 1 186.3 462)" class="st7 st3 st9">6</text>
				<text transform="matrix(1 0 0 1 261.5 462)" class="st7 st3 st9">1</text>
				<text transform="matrix(1 0 0 1 267.3 462)" class="st7 st3 st9">7</text>
				<text transform="matrix(1 0 0 1 332.5 462)" class="st7 st3 st9">1</text>
				<text transform="matrix(1 0 0 1 338.3 462)" class="st7 st3 st9">8</text>
				<path class="st17" d="M344.5,335.6c-9.8-1-11.4,0.4-18.2-11.6s-4.8,26.5-11.8,39.9s-5.4-30.4-19-37.4s-28.2-0.5-38,14.3
					s-23.2,16-36.8,19.1s-21.7-21.6-28.3-33.4s-19.4-11.3-27.5-3.9s-9.4,9.9-24.1,11.9S125.3,356,107.1,368s-46.7-95.4-46.7-73.5
					v148.8h284.1V335.6z"/>
				<path class="st18" d="M344.5,335.6c-9.8-1-11.4,0.4-18.2-11.6s-4.8,26.5-11.8,39.9s-5.4-30.4-19-37.4s-28.2-0.5-38,14.3
					s-23.2,16-36.8,19.1s-21.7-21.6-28.3-33.4s-19.4-11.3-27.5-3.9s-9.4,9.9-24.1,11.9S125.3,356,107.1,368s-46.7-95.4-46.7-73.5
					v148.8h284.1V335.6z"/>
				<path class="st19" d="M60.4,381c9.1,20.6,6.1,44.9,24.1,39.7s19.9-30.2,32.5-28.5s13.3,15.7,33.6,14.2s20.4-16.7,37.4-14.1
					s26,22.8,33.8,18.7s21.6-26.1,36.3-18.7s12.3,26.5,31.8,25s35-11.1,44-10.9s10.7,4.6,10.7,4.6"/>
			</g>
		</g>
	</g>
</g>
</svg>
