<?xml version="1.0" encoding="utf-8"?>
<!-- Generator: Adobe Illustrator 22.1.0, SVG Export Plug-In . SVG Version: 6.00 Build 0)  -->
<svg version="1.1" id="Laag_1" xmlns="http://www.w3.org/2000/svg" xmlns:xlink="http://www.w3.org/1999/xlink" x="0px" y="0px"
	 viewBox="0 0 771.4 842.4" style="enable-background:new 0 0 771.4 842.4;" xml:space="preserve">
<style type="text/css">
	.st0{fill:none;stroke:#312E2B;stroke-width:20.2974;stroke-miterlimit:10;}
</style>
<line class="st0" x1="0" y1="832.2" x2="771.4" y2="832.2"/>
<path class="st0" d="M454.7,10.1H332.9c-12.2,0-22.3,10.1-22.3,22.3v736.8c0,12.2,10.1,22.3,22.3,22.3h121.8
	c12.2,0,22.3-10.1,22.3-22.3V32.5C477,20.3,466.9,10.1,454.7,10.1z"/>
<path class="st0" d="M712.5,127.9H586.7c-12.2,0-20.3,10.1-20.3,20.3v623.1c0,12.2,10.1,20.3,20.3,20.3h125.8
	c12.2,0,20.3-10.1,20.3-20.3V148.2C732.8,138,722.6,127.9,712.5,127.9z"/>
<path class="st0" d="M184.8,363.3h-134c-8.1,0-16.2,8.1-16.2,16.2v395.8c0,8.1,8.1,16.2,16.2,16.2h134c8.1,0,16.2-8.1,16.2-16.2
	V379.6C201,369.4,192.9,363.3,184.8,363.3z"/>
</svg>
