<?xml version="1.0" encoding="utf-8"?>
<!-- Generator: Adobe Illustrator 22.1.0, SVG Export Plug-In . SVG Version: 6.00 Build 0)  -->
<svg version="1.1" id="Laag_1" xmlns="http://www.w3.org/2000/svg" xmlns:xlink="http://www.w3.org/1999/xlink" x="0px" y="0px"
	 viewBox="0 0 889.2 840.2" style="enable-background:new 0 0 889.2 840.2;" xml:space="preserve">
<style type="text/css">
	.st0{fill:none;stroke:#312E2B;stroke-width:18.2171;stroke-miterlimit:10;}
</style>
<g>
	<path class="st0" d="M460,13.2l413.5,329.7c12.8,10.9,5.5,32.8-10.9,32.8h-21.9c-9.1,0-18.2,7.3-18.2,18.2v419
		c0,9.1-7.3,18.2-18.2,18.2H562c-9.1,0-18.2-7.3-18.2-18.2V627.1c0-9.1-7.3-18.2-18.2-18.2H367.1c-9.1,0-18.2,7.3-18.2,18.2v185.8
		c0,9.1-7.3,18.2-18.2,18.2H92c-9.1,0-18.2-7.3-18.2-18.2v-419c0-9.1-7.3-18.2-18.2-18.2H26.5c-16.4,0-23.7-21.9-10.9-32.8
		L436.3,13.2C443.6,7.7,452.7,7.7,460,13.2z"/>
	<line class="st0" x1="48.3" y1="375.9" x2="849.8" y2="375.9"/>
</g>
</svg>
